<svg xmlns="http://www.w3.org/2000/svg" width="1024" height="1024" viewBox="0 0 1024 1024">
  <defs>
    <linearGradient id="B-bg" x1="0" y1="0" x2="0" y2="1">
      <stop offset="0" stop-color="#f6ead8"></stop><stop offset="1" stop-color="#ecd6b8"></stop>
    </linearGradient>
    <linearGradient id="B-cop" x1="0" y1="0" x2="0" y2="1">
      <stop offset="0" stop-color="#e08a52"></stop><stop offset="1" stop-color="#b5572b"></stop>
    </linearGradient>
    <linearGradient id="B-ink" x1="0" y1="0" x2="0" y2="1">
      <stop offset="0" stop-color="#46342a"></stop><stop offset="1" stop-color="#2f2018"></stop>
    </linearGradient>
    <filter id="B-shadow" x="-30%" y="-30%" width="160%" height="160%">
      <feDropShadow dx="0" dy="10" stdDeviation="12" flood-color="#7a4a25" flood-opacity="0.28"></feDropShadow>
    </filter>
  </defs>
  
  <g transform="translate(100 100) scale(0.8046875)">
    <path d="M1024.00,512.00L1023.93,631.24L1023.72,669.32L1023.37,696.98L1022.88,719.47L1022.24,738.75L1021.47,755.78L1020.55,771.13L1019.49,785.16L1018.29,798.12L1016.95,810.17L1015.46,821.46L1013.83,832.08L1012.04,842.12L1010.12,851.63L1008.04,860.66L1005.81,869.27L1003.43,877.48L1000.90,885.33L998.22,892.83L995.37,900.02L992.37,906.92L989.21,913.53L985.88,919.87L982.38,925.96L978.72,931.81L974.88,937.42L970.87,942.81L966.67,947.99L962.29,952.96L957.72,957.72L952.96,962.29L947.99,966.67L942.81,970.87L937.42,974.88L931.81,978.72L925.96,982.38L919.87,985.88L913.53,989.21L906.92,992.37L900.02,995.37L892.83,998.22L885.33,1000.90L877.48,1003.43L869.27,1005.81L860.66,1008.04L851.63,1010.12L842.12,1012.04L832.08,1013.83L821.46,1015.46L810.17,1016.95L798.12,1018.29L785.16,1019.49L771.13,1020.55L755.78,1021.47L738.75,1022.24L719.47,1022.88L696.98,1023.37L669.32,1023.72L631.24,1023.93L512.00,1024.00L392.76,1023.93L354.68,1023.72L327.02,1023.37L304.53,1022.88L285.25,1022.24L268.22,1021.47L252.87,1020.55L238.84,1019.49L225.88,1018.29L213.83,1016.95L202.54,1015.46L191.92,1013.83L181.88,1012.04L172.37,1010.12L163.34,1008.04L154.73,1005.81L146.52,1003.43L138.67,1000.90L131.17,998.22L123.98,995.37L117.08,992.37L110.47,989.21L104.13,985.88L98.04,982.38L92.19,978.72L86.58,974.88L81.19,970.87L76.01,966.67L71.04,962.29L66.28,957.72L61.71,952.96L57.33,947.99L53.13,942.81L49.12,937.42L45.28,931.81L41.62,925.96L38.12,919.87L34.79,913.53L31.63,906.92L28.63,900.02L25.78,892.83L23.10,885.33L20.57,877.48L18.19,869.27L15.96,860.66L13.88,851.63L11.96,842.12L10.17,832.08L8.54,821.46L7.05,810.17L5.71,798.12L4.51,785.16L3.45,771.13L2.53,755.78L1.76,738.75L1.12,719.47L0.63,696.98L0.28,669.32L0.07,631.24L0.00,512.00L0.07,392.76L0.28,354.68L0.63,327.02L1.12,304.53L1.76,285.25L2.53,268.22L3.45,252.87L4.51,238.84L5.71,225.88L7.05,213.83L8.54,202.54L10.17,191.92L11.96,181.88L13.88,172.37L15.96,163.34L18.19,154.73L20.57,146.52L23.10,138.67L25.78,131.17L28.63,123.98L31.63,117.08L34.79,110.47L38.12,104.13L41.62,98.04L45.28,92.19L49.12,86.58L53.13,81.19L57.33,76.01L61.71,71.04L66.28,66.28L71.04,61.71L76.01,57.33L81.19,53.13L86.58,49.12L92.19,45.28L98.04,41.62L104.13,38.12L110.47,34.79L117.08,31.63L123.98,28.63L131.17,25.78L138.67,23.10L146.52,20.57L154.73,18.19L163.34,15.96L172.37,13.88L181.88,11.96L191.92,10.17L202.54,8.54L213.83,7.05L225.88,5.71L238.84,4.51L252.87,3.45L268.22,2.53L285.25,1.76L304.53,1.12L327.02,0.63L354.68,0.28L392.76,0.07L512.00,0.00L631.24,0.07L669.32,0.28L696.98,0.63L719.47,1.12L738.75,1.76L755.78,2.53L771.13,3.45L785.16,4.51L798.12,5.71L810.17,7.05L821.46,8.54L832.08,10.17L842.12,11.96L851.63,13.88L860.66,15.96L869.27,18.19L877.48,20.57L885.33,23.10L892.83,25.78L900.02,28.63L906.92,31.63L913.53,34.79L919.87,38.12L925.96,41.62L931.81,45.28L937.42,49.12L942.81,53.13L947.99,57.33L952.96,61.71L957.72,66.28L962.29,71.04L966.67,76.01L970.87,81.19L974.88,86.58L978.72,92.19L982.38,98.04L985.88,104.13L989.21,110.47L992.37,117.08L995.37,123.98L998.22,131.17L1000.90,138.67L1003.43,146.52L1005.81,154.73L1008.04,163.34L1010.12,172.37L1012.04,181.88L1013.83,191.92L1015.46,202.54L1016.95,213.83L1018.29,225.88L1019.49,238.84L1020.55,252.87L1021.47,268.22L1022.24,285.25L1022.88,304.53L1023.37,327.02L1023.72,354.68L1023.93,392.76L1024.00,512.00Z" fill="url(#B-bg)"></path>
    <g filter="url(#B-shadow)">
      <g transform="translate(508 548) rotate(-37) translate(-100 -300)">
  <path d="M76 150 q-8 0 -8 20 l6 300 q0 26 26 26 q26 0 26 -26 l6 -300 q0 -20 -8 -20 z" fill="url(#B-ink)"></path>
  <ellipse cx="100" cy="92" rx="68" ry="92" fill="url(#B-ink)"></ellipse></g>
      <g transform="translate(508 548) rotate(37) translate(-205 -300)">
  <path d="M188 150 q-12 0 -12 24 l5 290 q0 30 24 30 q24 0 24 -30 l5 -290 q0 -24 -12 -24 z" fill="url(#B-ink)"></path>
  <path d="M150 96 q-78 4 -104 70 q-10 26 14 34 q22 7 30 -16 q12 -34 60 -40 z" fill="url(#B-cop)"></path>
  <path d="M120 52 h180 q34 0 34 34 v44 q0 34 -34 34 h-180 q-30 0 -30 -30 v-52 q0 -30 30 -30 z" fill="url(#B-cop)"></path>
  <rect x="300" y="56" width="6" height="100" rx="3" fill="#f2e2cc" opacity="0.5"></rect></g>
    </g>
  </g>
</svg>