<?xml version="1.0" encoding="UTF-8" standalone="no"?>
<!DOCTYPE svg PUBLIC "-//W3C//DTD SVG 1.1//EN" "http://www.w3.org/Graphics/SVG/1.1/DTD/svg11.dtd">
<svg width="100%" height="100%" viewBox="0 0 297 377" version="1.1" xmlns="http://www.w3.org/2000/svg" xmlns:xlink="http://www.w3.org/1999/xlink" xml:space="preserve" xmlns:serif="http://www.serif.com/" style="fill-rule:evenodd;clip-rule:evenodd;stroke-linejoin:round;stroke-miterlimit:2;">
    <g transform="matrix(1,0,0,1,-440,-498.286299)">
        <g transform="matrix(568.190866,0,0,568.190866,440,867)">
            <path d="M0.521,-0.064C0.521,-0.061 0.52,-0.058 0.519,-0.055L0.504,-0.031L0.497,-0.018L0.472,-0.011L0.447,0.008C0.442,0.011 0.437,0.013 0.432,0.013C0.422,0.013 0.413,0.011 0.404,0.007C0.389,0.002 0.379,-0.001 0.372,-0.001L0.339,0.001L0.283,-0.005L0.218,-0.003L0.206,-0.003L0.197,-0.014L0.192,-0.009L0.18,-0.012L0.179,-0.004L0.134,-0.003L0.132,-0.016L0.127,-0.02L0.116,-0.019L0.113,-0.005L0.091,-0.003L0.073,0.003C0.063,0.006 0.052,0.008 0.04,0.008C0.013,0.008 0,0.005 0,-0.001L0,-0.006L0.009,-0.011L0.021,-0.022C0.025,-0.026 0.03,-0.028 0.037,-0.028L0.041,-0.028C0.047,-0.042 0.052,-0.05 0.056,-0.054C0.06,-0.058 0.067,-0.06 0.077,-0.06C0.08,-0.067 0.086,-0.072 0.094,-0.075C0.09,-0.08 0.088,-0.084 0.088,-0.088C0.088,-0.09 0.089,-0.091 0.09,-0.093L0.118,-0.117L0.137,-0.14L0.15,-0.154L0.162,-0.176L0.2,-0.216L0.207,-0.232L0.22,-0.252L0.236,-0.296L0.301,-0.394C0.308,-0.404 0.312,-0.415 0.313,-0.427L0.32,-0.476L0.321,-0.485C0.316,-0.492 0.312,-0.497 0.31,-0.501C0.308,-0.505 0.306,-0.512 0.304,-0.52C0.296,-0.526 0.29,-0.53 0.287,-0.533C0.283,-0.536 0.28,-0.541 0.276,-0.547L0.279,-0.556C0.274,-0.564 0.268,-0.568 0.259,-0.569L0.258,-0.556L0.245,-0.561C0.214,-0.573 0.194,-0.581 0.185,-0.584C0.175,-0.587 0.165,-0.589 0.153,-0.589C0.136,-0.589 0.122,-0.585 0.112,-0.578L0.083,-0.556L0.071,-0.551L0.047,-0.564C0.048,-0.569 0.049,-0.573 0.05,-0.575C0.051,-0.577 0.055,-0.582 0.061,-0.591L0.067,-0.601L0.073,-0.601C0.076,-0.601 0.077,-0.601 0.078,-0.602L0.083,-0.608L0.116,-0.624L0.128,-0.635C0.137,-0.644 0.158,-0.649 0.189,-0.649C0.2,-0.649 0.215,-0.647 0.234,-0.644C0.24,-0.634 0.244,-0.629 0.248,-0.629C0.252,-0.629 0.256,-0.632 0.26,-0.639C0.264,-0.638 0.267,-0.637 0.269,-0.635C0.271,-0.633 0.272,-0.63 0.273,-0.625C0.277,-0.622 0.28,-0.621 0.283,-0.621C0.286,-0.621 0.29,-0.623 0.296,-0.627L0.308,-0.622C0.324,-0.616 0.333,-0.611 0.335,-0.609L0.342,-0.598L0.368,-0.583C0.376,-0.579 0.385,-0.569 0.395,-0.553L0.4,-0.541L0.4,-0.516L0.403,-0.501L0.404,-0.497C0.404,-0.487 0.399,-0.479 0.388,-0.475L0.387,-0.467L0.382,-0.464C0.386,-0.458 0.388,-0.454 0.388,-0.451C0.388,-0.446 0.386,-0.441 0.383,-0.437L0.315,-0.337L0.287,-0.287L0.28,-0.282L0.265,-0.257L0.198,-0.166L0.176,-0.134L0.163,-0.112C0.161,-0.106 0.159,-0.102 0.157,-0.1C0.156,-0.098 0.152,-0.096 0.145,-0.093C0.144,-0.09 0.143,-0.087 0.143,-0.084C0.143,-0.083 0.144,-0.08 0.146,-0.076L0.152,-0.075L0.192,-0.078L0.234,-0.068L0.244,-0.068C0.251,-0.068 0.262,-0.069 0.275,-0.072L0.283,-0.066L0.303,-0.066L0.349,-0.067L0.354,-0.067L0.364,-0.063L0.375,-0.062L0.404,-0.065L0.415,-0.06L0.432,-0.062L0.47,-0.06C0.48,-0.06 0.491,-0.067 0.504,-0.08L0.521,-0.076L0.521,-0.064Z" style="fill-rule:nonzero;"/>
        </g>
    </g>
</svg>
